<svg width="62" height="51" viewBox="0 0 62 51" fill="none" xmlns="http://www.w3.org/2000/svg">
<path d="M4 6.14703C4 5.84282 4.12221 5.55107 4.33975 5.33596C4.55729 5.12085 4.85234 5 5.15998 5H56.1992C56.5068 5 56.8019 5.12085 57.0194 5.33596C57.2369 5.55107 57.3592 5.84282 57.3592 6.14703C57.3592 6.45124 57.2369 6.743 57.0194 6.95811C56.8019 7.17322 56.5068 7.29406 56.1992 7.29406H5.15998C4.85234 7.29406 4.55729 7.17322 4.33975 6.95811C4.12221 6.743 4 6.45124 4 6.14703ZM5.15998 25.6466H26.0397C26.3473 25.6466 26.6423 25.5257 26.8599 25.3106C27.0774 25.0955 27.1996 24.8038 27.1996 24.4995C27.1996 24.1953 27.0774 23.9036 26.8599 23.6885C26.6423 23.4734 26.3473 23.3525 26.0397 23.3525H5.15998C4.85234 23.3525 4.55729 23.4734 4.33975 23.6885C4.12221 23.9036 4 24.1953 4 24.4995C4 24.8038 4.12221 25.0955 4.33975 25.3106C4.55729 25.5257 4.85234 25.6466 5.15998 25.6466ZM30.6796 41.705H5.15998C4.85234 41.705 4.55729 41.8259 4.33975 42.041C4.12221 42.2561 4 42.5479 4 42.8521C4 43.1563 4.12221 43.448 4.33975 43.6631C4.55729 43.8783 4.85234 43.9991 5.15998 43.9991H30.6796C30.9872 43.9991 31.2823 43.8783 31.4998 43.6631C31.7174 43.448 31.8396 43.1563 31.8396 42.8521C31.8396 42.5479 31.7174 42.2561 31.4998 42.041C31.2823 41.8259 30.9872 41.705 30.6796 41.705ZM61.6598 43.6636C61.5521 43.7702 61.4241 43.8548 61.2833 43.9126C61.1425 43.9703 60.9915 44 60.8391 44C60.6867 44 60.5357 43.9703 60.3949 43.9126C60.2541 43.8548 60.1261 43.7702 60.0184 43.6636L53.4297 37.1484C51.3417 38.7983 48.694 39.595 46.0305 39.3748C43.3669 39.1546 40.8898 37.9342 39.1078 35.9644C37.3258 33.9946 36.3742 31.4247 36.4485 28.7828C36.5228 26.1408 37.6174 23.6273 39.5073 21.7584C41.3973 19.8896 43.9392 18.8072 46.611 18.7338C49.2828 18.6603 51.8816 19.6012 53.8737 21.3633C55.8658 23.1254 57.0999 25.5749 57.3226 28.2087C57.5453 30.8425 56.7396 33.4607 55.0711 35.5254L61.6598 42.0405C61.7676 42.1471 61.8532 42.2736 61.9116 42.4128C61.97 42.5521 62 42.7013 62 42.8521C62 43.0028 61.97 43.1521 61.9116 43.2913C61.8532 43.4306 61.7676 43.5571 61.6598 43.6636ZM46.9193 37.1169C48.5253 37.1169 50.0952 36.646 51.4305 35.7637C52.7658 34.8815 53.8065 33.6275 54.4211 32.1603C55.0357 30.6932 55.1965 29.0788 54.8832 27.5213C54.5699 25.9637 53.7965 24.5331 52.6609 23.4102C51.5254 22.2873 50.0785 21.5225 48.5034 21.2127C46.9283 20.9029 45.2957 21.0619 43.812 21.6696C42.3283 22.2774 41.0601 23.3065 40.1679 24.6269C39.2757 25.9473 38.7995 27.4996 38.7995 29.0877C38.7994 31.2172 39.6549 33.2594 41.1777 34.7652C42.7005 36.271 44.7658 37.1169 46.9193 37.1169Z" fill="#FF6683"/>
</svg>
